<?xml version="1.0" encoding="UTF-8" standalone="no"?>
<!-- Created with Inkscape (http://www.inkscape.org/) -->

<svg
   width="256mm"
   height="256mm"
   viewBox="0 0 256 256"
   version="1.1"
   id="svg5"
   inkscape:version="1.2.2 (b0a8486541, 2022-12-01)"
   sodipodi:docname="logo_new_year.svg"
   xmlns:inkscape="http://www.inkscape.org/namespaces/inkscape"
   xmlns:sodipodi="http://sodipodi.sourceforge.net/DTD/sodipodi-0.dtd"
   xmlns="http://www.w3.org/2000/svg"
   xmlns:svg="http://www.w3.org/2000/svg">
  <sodipodi:namedview
     id="namedview7"
     pagecolor="#ffffff"
     bordercolor="#000000"
     borderopacity="0.25"
     inkscape:showpageshadow="2"
     inkscape:pageopacity="0"
     inkscape:pagecheckerboard="0"
     inkscape:deskcolor="#d1d1d1"
     inkscape:document-units="mm"
     showgrid="false"
     inkscape:zoom="1.0419012"
     inkscape:cx="396.87064"
     inkscape:cy="473.17346"
     inkscape:window-width="1920"
     inkscape:window-height="1007"
     inkscape:window-x="0"
     inkscape:window-y="0"
     inkscape:window-maximized="1"
     inkscape:current-layer="layer1" />
  <defs
     id="defs2">
    <rect
       x="101.16656"
       y="338.80182"
       width="617.60993"
       height="668.8693"
       id="rect6778" />
    <rect
       x="191.66976"
       y="501.89091"
       width="11.937197"
       height="28.64919"
       id="rect6772" />
  </defs>
  <g
     inkscape:label="Слой 1"
     inkscape:groupmode="layer"
     id="layer1">
    <ellipse
       style="fill:#ffcc00;stroke:#3e8c00;stroke-width:4.99999;fill-opacity:0;stroke-opacity:1"
       id="path788"
       cx="127.0029"
       cy="126.70135"
       rx="118.10334"
       ry="118.36021" />
    <text
       xml:space="preserve"
       transform="scale(0.26458333)"
       id="text6770"
       style="white-space:pre;shape-inside:url(#rect6772);display:inline;fill:#ffcc00;fill-opacity:0;stroke:#3e8c00;stroke-width:18.8976;stroke-opacity:1" />
    <g
       aria-label="Logo
New Year"
       transform="matrix(0.26458333,0,0,0.26458333,27.88577,-39.8236)"
       id="text6776"
       style="font-size:240px;white-space:pre;shape-inside:url(#rect6778);display:inline;fill:#ffcc00;fill-opacity:0;stroke:#3e8c00;stroke-width:3.77953">
      <path
         d="M 120.85352,554.9838 V 389.86661 h 22.38281 v 146.83594 h 83.4375 v 18.28125 z"
         id="path342" />
      <path
         d="m 358.04102,491.46817 q 0,33.28125 -14.64844,49.57031 -14.64844,16.28907 -42.53906,16.28907 -27.77344,0 -41.95313,-16.875 -14.17969,-16.99219 -14.17969,-48.98438 0,-65.625 56.83594,-65.625 29.0625,0 42.77344,16.05469 13.71094,15.9375 13.71094,49.57031 z m -22.14844,0 q 0,-26.25 -7.85156,-38.08594 -7.73438,-11.95312 -26.13282,-11.95312 -18.51562,0 -26.83593,12.1875 -8.20313,12.07031 -8.20313,37.85156 0,25.07813 8.08594,37.73438 8.20312,12.53906 25.66406,12.53906 18.98438,0 27.07031,-12.1875 8.20313,-12.1875 8.20313,-38.08594 z"
         id="path344" />
      <path
         d="m 432.33789,604.78848 q -20.74219,0 -33.04687,-8.20312 -12.30469,-8.08594 -15.82032,-23.08594 l 21.21094,-3.04687 q 2.10938,8.78906 9.25781,13.47656 7.26563,4.80469 18.98438,4.80469 31.52344,0 31.52344,-36.91407 v -20.39062 h -0.23438 q -5.97656,12.1875 -16.40625,18.39844 -10.42969,6.09375 -24.375,6.09375 -23.32031,0 -34.33594,-15.46875 -10.89843,-15.46875 -10.89843,-48.63282 0,-33.63281 11.71875,-49.57031 11.83593,-16.05469 35.85937,-16.05469 13.47656,0 23.32031,6.21094 9.96094,6.09375 15.35157,17.46094 h 0.23437 q 0,-3.51563 0.46875,-12.1875 0.46875,-8.67188 0.9375,-9.49219 h 20.03906 q -0.70312,6.32813 -0.70312,26.25 v 96.91406 q 0,53.4375 -53.08594,53.4375 z m 32.10938,-113.20312 q 0,-15.46875 -4.21875,-26.60156 -4.21875,-11.25 -11.95313,-17.10938 -7.61719,-5.97656 -17.34375,-5.97656 -16.17187,0 -23.55469,11.71875 -7.38281,11.71875 -7.38281,37.96875 0,26.01562 6.91406,37.38281 6.91407,11.36719 23.67188,11.36719 9.96094,0 17.69531,-5.85938 7.73438,-5.85937 11.95313,-16.75781 4.21875,-11.01562 4.21875,-26.13281 z"
         id="path346" />
      <path
         d="m 624.99414,491.46817 q 0,33.28125 -14.64844,49.57031 -14.64843,16.28907 -42.53906,16.28907 -27.77344,0 -41.95312,-16.875 -14.17969,-16.99219 -14.17969,-48.98438 0,-65.625 56.83594,-65.625 29.0625,0 42.77343,16.05469 13.71094,15.9375 13.71094,49.57031 z m -22.14844,0 q 0,-26.25 -7.85156,-38.08594 -7.73437,-11.95312 -26.13281,-11.95312 -18.51563,0 -26.83594,12.1875 -8.20312,12.07031 -8.20312,37.85156 0,25.07813 8.08593,37.73438 8.20313,12.53906 25.66407,12.53906 18.98437,0 27.07031,-12.1875 8.20312,-12.1875 8.20312,-38.08594 z"
         id="path348" />
      <path
         d="m 171.60854,854.9838 -49.08841,-78.1248 0.32552,6.31508 0.32552,10.87237 v 60.93735 h -11.06768 v -91.73154 h 14.45309 l 49.60924,78.64563 q -0.78124,-12.76038 -0.78124,-18.48953 v -60.1561 h 11.19788 v 91.73154 z"
         style="font-size:133.333px"
         id="path350" />
      <path
         d="m 215.42354,822.23648 q 0,12.10935 5.01301,18.68485 5.013,6.57551 14.6484,6.57551 7.61716,0 12.17444,-3.05989 4.62239,-3.05989 6.24999,-7.74738 l 10.28643,2.92968 q -6.31509,16.66663 -28.71086,16.66663 -15.62496,0 -23.82807,-9.30988 -8.138,-9.30987 -8.138,-27.6692 0,-17.44787 8.138,-26.75774 8.20311,-9.30987 23.37234,-9.30987 31.05461,0 31.05461,37.4348 v 1.56249 z m 38.15094,-8.98435 q -0.97656,-11.13278 -5.66405,-16.21089 -4.68748,-5.14322 -13.47652,-5.14322 -8.52863,0 -13.54164,5.72915 -4.9479,5.66405 -5.33852,15.62496 z"
         style="font-size:133.333px"
         id="path352" />
      <path
         d="M 348.04039,854.9838 H 334.43365 L 322.129,805.17924 319.78525,794.17666 q -0.58593,2.92968 -1.82291,8.46352 -1.23698,5.46874 -13.28122,52.34362 h -13.54163 l -19.72651,-70.44253 h 11.58851 l 11.91403,47.85144 q 0.45573,1.56249 2.79948,12.89059 l 1.10676,-4.8177 14.71351,-55.92433 h 12.56507 l 12.30466,48.37227 2.99478,12.36976 2.01822,-9.04946 13.34632,-51.69257 h 11.45831 z"
         style="font-size:133.333px"
         id="path354" />
      <path
         d="m 453.11825,816.96306 v 38.02074 h -12.36976 v -38.02074 l -35.28637,-53.7108 h 13.67184 l 27.92962,43.68478 27.7994,-43.68478 h 13.67184 z"
         style="font-size:133.333px"
         id="path356" />
      <path
         d="m 497.19365,822.23648 q 0,12.10935 5.01301,18.68485 5.01301,6.57551 14.6484,6.57551 7.61717,0 12.17445,-3.05989 4.62238,-3.05989 6.24998,-7.74738 l 10.28643,2.92968 q -6.31509,16.66663 -28.71086,16.66663 -15.62496,0 -23.82807,-9.30988 -8.138,-9.30987 -8.138,-27.6692 0,-17.44787 8.138,-26.75774 8.20311,-9.30987 23.37234,-9.30987 31.05461,0 31.05461,37.4348 v 1.56249 z m 38.15094,-8.98435 q -0.97656,-11.13278 -5.66404,-16.21089 -4.68749,-5.14322 -13.47653,-5.14322 -8.52863,0 -13.54163,5.72915 -4.94791,5.66405 -5.33853,15.62496 z"
         style="font-size:133.333px"
         id="path358" />
      <path
         d="m 580.33147,856.28588 q -10.61195,0 -15.95048,-5.59895 -5.33852,-5.59894 -5.33852,-15.36454 0,-10.93747 7.16144,-16.79683 7.22654,-5.85936 23.24212,-6.24999 l 15.82028,-0.26041 v -3.84114 q 0,-8.59373 -3.64583,-12.30466 -3.64582,-3.71092 -11.4583,-3.71092 -7.87759,0 -11.45831,2.66926 -3.58072,2.66926 -4.29686,8.52862 l -12.23955,-1.10676 q 2.99478,-19.01037 28.25513,-19.01037 13.28122,0 19.98693,6.11977 6.70571,6.05468 6.70571,17.57808 v 30.33847 q 0,5.20832 1.36719,7.87758 1.36718,2.60416 5.20832,2.60416 1.6927,0 3.84113,-0.45573 v 7.29165 q -4.42707,1.04167 -9.04945,1.04167 -6.5104,0 -9.50519,-3.38541 -2.92968,-3.45051 -3.3203,-10.74216 h -0.39062 q -4.49218,8.07289 -10.48175,11.4583 -5.92446,3.32031 -14.45309,3.32031 z m 2.66927,-8.78904 q 6.44529,0 11.4583,-2.92968 5.01301,-2.92968 7.87759,-8.0078 2.92968,-5.14321 2.92968,-10.54684 v -5.79426 l -12.82549,0.26042 q -8.26821,0.1302 -12.56507,1.6927 -4.23176,1.5625 -6.5104,4.8177 -2.27864,3.2552 -2.27864,8.52862 0,5.72915 3.05988,8.85414 3.125,3.125 8.85415,3.125 z"
         style="font-size:133.333px"
         id="path360" />
      <path
         d="m 636.77663,854.9838 v -54.03632 q 0,-7.42186 -0.39063,-16.40621 h 11.06768 q 0.52084,11.97913 0.52084,14.38798 h 0.26041 q 2.79947,-9.04945 6.4453,-12.36976 3.64582,-3.3203 10.28643,-3.3203 2.34374,0 4.75259,0.65104 v 10.74216 q -2.34374,-0.65104 -6.24998,-0.65104 -7.29165,0 -11.13279,6.31509 -3.84113,6.24998 -3.84113,17.9687 v 36.71866 z"
         style="font-size:133.333px"
         id="path362" />
    </g>
  </g>
</svg>
