<?xml version="1.0" encoding="UTF-8" standalone="no"?>
<!-- Created with Inkscape (http://www.inkscape.org/) -->

<svg
   width="256mm"
   height="256mm"
   viewBox="0 0 256 256"
   version="1.1"
   id="svg5"
   inkscape:version="1.2.2 (b0a8486541, 2022-12-01)"
   sodipodi:docname="logo.svg"
   xmlns:inkscape="http://www.inkscape.org/namespaces/inkscape"
   xmlns:sodipodi="http://sodipodi.sourceforge.net/DTD/sodipodi-0.dtd"
   xmlns="http://www.w3.org/2000/svg"
   xmlns:svg="http://www.w3.org/2000/svg">
  <sodipodi:namedview
     id="namedview7"
     pagecolor="#ffffff"
     bordercolor="#000000"
     borderopacity="0.25"
     inkscape:showpageshadow="2"
     inkscape:pageopacity="0"
     inkscape:pagecheckerboard="0"
     inkscape:deskcolor="#d1d1d1"
     inkscape:document-units="mm"
     showgrid="false"
     inkscape:zoom="0.73673541"
     inkscape:cx="399.73645"
     inkscape:cy="547.00778"
     inkscape:window-width="1920"
     inkscape:window-height="1007"
     inkscape:window-x="0"
     inkscape:window-y="0"
     inkscape:window-maximized="1"
     inkscape:current-layer="layer1" />
  <defs
     id="defs2">
    <rect
       x="101.16656"
       y="338.80182"
       width="617.60993"
       height="668.8693"
       id="rect6778" />
    <rect
       x="191.66976"
       y="501.89091"
       width="11.937197"
       height="28.64919"
       id="rect6772" />
  </defs>
  <g
     inkscape:label="Слой 1"
     inkscape:groupmode="layer"
     id="layer1">
    <ellipse
       style="fill:#ffcc00;stroke:#3e8c00;stroke-width:4.99999;fill-opacity:0;stroke-opacity:1"
       id="path788"
       cx="127.0029"
       cy="126.70135"
       rx="118.10334"
       ry="118.36021" />
    <text
       xml:space="preserve"
       transform="scale(0.26458333)"
       id="text6770"
       style="white-space:pre;shape-inside:url(#rect6772);display:inline;fill:#ffcc00;fill-opacity:0;stroke:#3e8c00;stroke-width:18.8976;stroke-opacity:1" />
    <g
       id="path342"
       transform="matrix(0.26458333,0,0,0.26458333,25.413709,0.26106098)"
       style="font-size:240px;white-space:pre;fill:#ffcc00;fill-opacity:0;stroke:#3e8c00;stroke-width:3.77953">
      <path
         style="color:#000000;stroke:none;-inkscape-stroke:none"
         d="M 120.85352,554.9838 V 389.86661 h 22.38281 v 146.83594 h 83.4375 v 18.28125 z"
         id="path367" />
      <path
         style="color:#000000;fill:#3e8c00;fill-opacity:1;stroke:none;-inkscape-stroke:none"
         d="m 118.96289,387.97656 v 168.89649 h 1.89063 107.71093 V 534.8125 h -83.4375 V 387.97656 Z m 3.78125,3.7793 H 141.3457 V 538.5918 h 83.4375 v 14.50195 H 122.74414 Z"
         id="path369" />
    </g>
    <g
       id="path344"
       transform="matrix(0.26458333,0,0,0.26458333,25.413709,0.26106098)"
       style="font-size:240px;white-space:pre;fill:#ffcc00;fill-opacity:0;stroke:#3e8c00;stroke-width:3.77953">
      <path
         style="color:#000000;stroke:none;-inkscape-stroke:none"
         d="m 358.04102,491.46817 q 0,33.28125 -14.64844,49.57031 -14.64844,16.28907 -42.53906,16.28907 -27.77344,0 -41.95313,-16.875 -14.17969,-16.99219 -14.17969,-48.98438 0,-65.625 56.83594,-65.625 29.0625,0 42.77344,16.05469 13.71094,15.9375 13.71094,49.57031 z m -22.14844,0 q 0,-26.25 -7.85156,-38.08594 -7.73438,-11.95312 -26.13282,-11.95312 -18.51562,0 -26.83593,12.1875 -8.20313,12.07031 -8.20313,37.85156 0,25.07813 8.08594,37.73438 8.20312,12.53906 25.66406,12.53906 18.98438,0 27.07031,-12.1875 8.20313,-12.1875 8.20313,-38.08594 z"
         id="path373" />
      <path
         style="color:#000000;fill:#3e8c00;fill-opacity:1;stroke:none;-inkscape-stroke:none"
         d="m 301.55664,423.95312 c -19.30896,0 -34.17387,5.64983 -44.05469,17.0586 -9.88081,11.40877 -14.67187,28.30927 -14.67187,50.45703 0,21.6073 4.79222,38.41926 14.61914,50.19531 l 0.002,0.002 0.002,0.002 c 9.84405,11.71523 24.50205,17.54883 43.4004,17.54883 18.96162,0 33.779,-5.6113 43.94335,-16.91407 10.19351,-11.33517 15.13477,-28.36925 15.13477,-50.83398 0,-22.67865 -4.6007,-39.67953 -14.16992,-50.80273 l 0.006,0.004 c -9.56883,-11.20453 -24.48798,-16.7168 -44.21094,-16.7168 z m 0,3.7793 c 19.027,0 32.62354,5.19088 41.33594,15.39258 l 0.002,0.002 0.004,0.004 c 8.71201,10.12678 13.25195,26.17284 13.25195,48.33789 0,21.91022 -4.82438,37.92309 -14.16211,48.30664 -9.36687,10.41597 -22.90893,15.66211 -41.13476,15.66211 -18.12987,0 -31.43987,-5.41414 -40.50196,-16.19531 l -0.004,-0.006 c -9.07639,-10.88002 -13.73633,-26.72212 -13.73633,-47.76758 0,-21.6022 4.68161,-37.51622 13.74609,-47.98242 9.06448,-10.46621 22.61759,-15.75391 41.19922,-15.75391 z m 0.35156,11.80664 c -12.75836,0 -22.48157,4.34762 -28.39648,13.01172 l -0.002,0.002 v 0.002 c -5.82034,8.56419 -8.53125,21.52615 -8.53125,38.91406 0,16.92184 2.68925,29.83725 8.38476,38.75195 l 0.004,0.008 0.006,0.008 c 5.80503,8.87341 15.15312,13.39453 27.24609,13.39453 13.05584,0 22.87054,-4.33515 28.63867,-13.02149 l 0.004,-0.006 c 5.81242,-8.63942 8.52148,-21.67335 8.52148,-39.13477 0,-17.68456 -2.57646,-30.69793 -8.16406,-39.125 -5.52867,-8.53455 -15.042,-12.80469 -27.71094,-12.80469 z m 0,3.7793 c 11.85637,0 19.76191,3.6949 24.54688,11.08984 l 0.006,0.01 0.006,0.01 c 4.87861,7.35434 7.53515,19.72945 7.53515,37.04102 0,17.06609 -2.75834,29.4187 -7.88086,37.0293 l -0.002,0.006 -0.004,0.006 c -5.01394,7.55726 -13.24424,11.34179 -25.49609,11.34179 -11.18649,0 -18.94761,-3.83687 -24.08008,-11.67969 -8.1e-4,-0.001 -10e-4,-0.003 -0.002,-0.004 -5.07919,-7.96067 -7.77734,-20.19456 -7.77734,-36.69922 0,-16.98553 2.75676,-29.2574 7.87304,-36.78711 l 0.002,-0.002 c 5.1789,-7.58431 13.34556,-11.36133 25.27343,-11.36133 z"
         id="path375" />
    </g>
    <g
       id="path346"
       transform="matrix(0.26458333,0,0,0.26458333,25.413709,0.26106098)"
       style="font-size:240px;white-space:pre;fill:#ffcc00;fill-opacity:0;stroke:#3e8c00;stroke-width:3.77953">
      <path
         style="color:#000000;stroke:none;-inkscape-stroke:none"
         d="m 432.33789,604.78848 q -20.74219,0 -33.04687,-8.20312 -12.30469,-8.08594 -15.82032,-23.08594 l 21.21094,-3.04687 q 2.10938,8.78906 9.25781,13.47656 7.26563,4.80469 18.98438,4.80469 31.52344,0 31.52344,-36.91407 v -20.39062 h -0.23438 q -5.97656,12.1875 -16.40625,18.39844 -10.42969,6.09375 -24.375,6.09375 -23.32031,0 -34.33594,-15.46875 -10.89843,-15.46875 -10.89843,-48.63282 0,-33.63281 11.71875,-49.57031 11.83593,-16.05469 35.85937,-16.05469 13.47656,0 23.32031,6.21094 9.96094,6.09375 15.35157,17.46094 h 0.23437 q 0,-3.51563 0.46875,-12.1875 0.46875,-8.67188 0.9375,-9.49219 h 20.03906 q -0.70312,6.32813 -0.70312,26.25 v 96.91406 q 0,53.4375 -53.08594,53.4375 z m 32.10938,-113.20312 q 0,-15.46875 -4.21875,-26.60156 -4.21875,-11.25 -11.95313,-17.10938 -7.61719,-5.97656 -17.34375,-5.97656 -16.17187,0 -23.55469,11.71875 -7.38281,11.71875 -7.38281,37.96875 0,26.01562 6.91406,37.38281 6.91407,11.36719 23.67188,11.36719 9.96094,0 17.69531,-5.85938 7.73438,-5.85937 11.95313,-16.75781 4.21875,-11.01562 4.21875,-26.13281 z"
         id="path379" />
      <path
         style="color:#000000;fill:#3e8c00;fill-opacity:1;stroke:none;-inkscape-stroke:none"
         d="m 425.77539,424.30469 c -16.43658,0 -29.12787,5.62956 -37.38086,16.82422 l -0.002,0.002 c -8.18832,11.13612 -12.08594,28.04812 -12.08594,50.68945 0,22.31637 3.6123,38.88841 11.24414,49.72071 l 0.002,0.004 0.004,0.004 c 7.70926,10.82576 19.91031,16.26172 35.875,16.26172 9.57212,0 18.05824,-2.104 25.32813,-6.35157 l 0.008,-0.004 0.006,-0.004 c 5.48372,-3.26559 10.08419,-7.73414 13.7832,-13.32617 v 13.69531 c 0,12.03571 -2.57786,20.77781 -7.42773,26.45703 -4.84988,5.67923 -12.0661,8.56641 -22.20508,8.56641 -7.55423,0 -13.48757,-1.54495 -17.94141,-4.49023 l -0.004,-0.002 -0.002,-0.002 c -4.38398,-2.87474 -7.14604,-6.87545 -8.45703,-12.33789 l -0.40234,-1.67383 -24.95703,3.58398 0.4707,2.00782 c 2.43831,10.40344 8.04076,18.59459 16.62305,24.23437 8.60964,5.73578 20.01256,8.51367 34.08398,8.51367 18.01234,0 31.86271,-4.56289 41.1543,-13.91601 9.29158,-9.35312 13.82226,-23.28479 13.82226,-41.41016 V 454.4375 c 0,-13.259 0.2467,-22.03859 0.69141,-26.04102 l 0.23242,-2.09961 h -23.24609 l -0.54492,0.95313 c -0.40028,0.70047 -0.36683,0.98782 -0.45704,1.52344 -0.0902,0.53561 -0.17132,1.19534 -0.25195,2.01172 -0.16126,1.63274 -0.31753,3.88504 -0.47461,6.79101 -0.15017,2.77824 -0.14799,3.89896 -0.22656,5.89258 -3.41043,-5.23466 -7.73547,-9.4795 -12.94336,-12.66797 -6.88962,-4.34423 -15.048,-6.49609 -24.31836,-6.49609 z m 0,3.77929 c 8.69405,0 16.07916,1.98698 22.3125,5.91993 l 0.01,0.008 0.0117,0.006 c 6.32387,3.86871 11.17419,9.36913 14.63086,16.6582 l 0.51172,1.08008 h 3.32032 v -1.88867 c 0,-2.25976 0.15308,-6.31844 0.46484,-12.08594 0.15542,-2.87528 0.31165,-5.09369 0.46289,-6.625 0.0466,-0.47146 0.0885,-0.74513 0.13281,-1.08008 h 16.5 c -0.38979,4.77985 -0.59961,12.46668 -0.59961,24.36133 v 96.91406 c 0,17.4996 -4.31699,30.28673 -12.7207,38.7461 -8.40371,8.45936 -21.09636,12.80078 -38.47461,12.80078 -13.57899,0 -24.20272,-2.68788 -31.99805,-7.88477 l -0.006,-0.004 -0.006,-0.004 c -7.24981,-4.76416 -11.92136,-11.387 -14.37304,-19.95508 l 17.43945,-2.50391 c 1.68165,5.45585 4.83602,9.89743 9.50195,12.95899 0.001,7.9e-4 0.003,10e-4 0.004,0.002 7.8e-4,5.1e-4 10e-4,10e-4 0.002,0.002 5.23283,3.45837 11.95369,5.11328 20.02149,5.11328 10.87662,0 19.42215,-3.26517 25.08008,-9.89063 5.65792,-6.62545 8.33398,-16.33846 8.33398,-28.91211 v -22.28125 h -3.30273 l -0.51954,1.0586 c -3.84773,7.84635 -9.05023,13.65783 -15.66992,17.60156 -0.002,0.001 -0.004,0.003 -0.006,0.004 -6.63338,3.87219 -14.39272,5.82813 -23.4082,5.82813 -15.12486,0 -25.81266,-4.87415 -32.79102,-14.66797 l -0.002,-0.002 c -10e-4,-0.002 -0.003,-0.004 -0.004,-0.006 -6.89588,-9.79329 -10.54688,-25.63854 -10.54688,-47.53516 0,-22.20082 3.91396,-38.33522 11.34961,-48.44922 l 0.002,-0.002 c 7.52823,-10.21007 18.74245,-15.28516 34.33594,-15.28516 z m 5.15625,11.92383 c -11.2377,0 -19.90071,4.26255 -25.1543,12.60156 -5.26107,8.35092 -7.67382,21.29942 -7.67382,38.97657 0,17.51114 2.24745,30.24024 7.18945,38.36523 4.96164,8.15726 13.68796,12.27344 25.28711,12.27344 7.01116,0 13.36844,-2.10014 18.83594,-6.24219 5.47394,-4.14692 9.66253,-10.06017 12.57421,-17.58203 l 0.002,-0.004 0.002,-0.002 c 2.91576,-7.61337 4.34375,-16.55468 4.34375,-26.80859 0,-10.48173 -1.42601,-19.57375 -4.33984,-27.26563 -2.90581,-7.74881 -7.0878,-13.78573 -12.57032,-17.94336 -5.3824,-4.21852 -11.63039,-6.36914 -18.49609,-6.36914 z m 0,3.7793 c 6.09731,0 11.40694,1.83098 16.17773,5.57422 l 0.0117,0.01 0.0137,0.01 c 4.82405,3.65458 8.60716,9.02014 11.32421,16.26562 l 0.002,0.004 v 0.004 c 2.70972,7.15065 4.0957,15.79094 4.0957,25.93164 0,9.90232 -1.38451,18.38292 -4.09375,25.45703 -2.71307,7.00514 -6.49152,12.26169 -11.32812,15.92578 -4.84499,3.67045 -10.28461,5.47656 -16.55469,5.47656 -10.74457,0 -17.79953,-3.46001 -22.05664,-10.45898 -4.27674,-7.03125 -6.63867,-19.22407 -6.63867,-36.40039 0,-17.32282 2.50913,-29.68883 7.09179,-36.96289 4.59017,-7.28597 11.63031,-10.83594 21.95508,-10.83594 z"
         id="path381" />
    </g>
    <g
       id="path348"
       transform="matrix(0.26458333,0,0,0.26458333,25.413709,0.26106098)"
       style="font-size:240px;white-space:pre;fill:#ffcc00;fill-opacity:0;stroke:#3e8c00;stroke-width:3.77953">
      <path
         style="color:#000000;stroke:none;-inkscape-stroke:none"
         d="m 624.99414,491.46817 q 0,33.28125 -14.64844,49.57031 -14.64843,16.28907 -42.53906,16.28907 -27.77344,0 -41.95312,-16.875 -14.17969,-16.99219 -14.17969,-48.98438 0,-65.625 56.83594,-65.625 29.0625,0 42.77343,16.05469 13.71094,15.9375 13.71094,49.57031 z m -22.14844,0 q 0,-26.25 -7.85156,-38.08594 -7.73437,-11.95312 -26.13281,-11.95312 -18.51563,0 -26.83594,12.1875 -8.20312,12.07031 -8.20312,37.85156 0,25.07813 8.08593,37.73438 8.20313,12.53906 25.66407,12.53906 18.98437,0 27.07031,-12.1875 8.20312,-12.1875 8.20312,-38.08594 z"
         id="path385" />
      <path
         style="color:#000000;fill:#3e8c00;fill-opacity:1;stroke:none;-inkscape-stroke:none"
         d="m 568.50977,423.95312 c -19.30896,0 -34.17388,5.64983 -44.05469,17.0586 -9.88082,11.40877 -14.67188,28.30927 -14.67188,50.45703 0,21.6073 4.79223,38.41926 14.61914,50.19531 l 0.002,0.002 0.002,0.002 c 9.84404,11.71523 24.50205,17.54883 43.40039,17.54883 18.96163,0 33.77901,-5.6113 43.94336,-16.91407 10.1935,-11.33517 15.13477,-28.36925 15.13477,-50.83398 0,-22.67865 -4.6007,-39.67953 -14.16993,-50.80273 l 0.006,0.004 c -9.56882,-11.20453 -24.48797,-16.7168 -44.21093,-16.7168 z m 0,3.7793 c 19.027,0 32.62354,5.19088 41.33593,15.39258 l 0.002,0.002 0.004,0.004 c 8.71201,10.12678 13.25196,26.17284 13.25196,48.33789 0,21.91022 -4.82438,37.92309 -14.16211,48.30664 -9.36687,10.41597 -22.90893,15.66211 -41.13477,15.66211 -18.12986,0 -31.43987,-5.41414 -40.50195,-16.19531 l -0.004,-0.006 c -9.07638,-10.88002 -13.73633,-26.72212 -13.73633,-47.76758 0,-21.6022 4.68162,-37.51622 13.7461,-47.98242 9.06448,-10.46621 22.61759,-15.75391 41.19922,-15.75391 z m 0.35156,11.80664 c -12.75837,0 -22.48157,4.34762 -28.39649,13.01172 l -0.002,0.002 v 0.002 c -5.82032,8.56419 -8.53125,21.52615 -8.53125,38.91406 0,16.92184 2.68926,29.83725 8.38477,38.75195 l 0.004,0.008 0.006,0.008 c 5.80504,8.87341 15.15312,13.39453 27.2461,13.39453 13.05583,0 22.87052,-4.33515 28.63867,-13.02149 l 0.004,-0.006 c 5.81241,-8.63942 8.52149,-21.67335 8.52149,-39.13477 0,-17.68456 -2.57646,-30.69793 -8.16406,-39.125 -5.52867,-8.53455 -15.04201,-12.80469 -27.71094,-12.80469 z m 0,3.7793 c 11.85636,0 19.76191,3.6949 24.54687,11.08984 l 0.006,0.01 0.006,0.01 c 4.87862,7.35434 7.53516,19.72945 7.53516,37.04102 0,17.06609 -2.75835,29.4187 -7.88086,37.0293 l -0.002,0.006 -0.004,0.006 c -5.01395,7.55726 -13.24425,11.34179 -25.49609,11.34179 -11.1865,0 -18.94761,-3.83687 -24.08008,-11.67969 -8.1e-4,-0.001 -0.001,-0.003 -0.002,-0.004 -5.07918,-7.96067 -7.77734,-20.19456 -7.77734,-36.69922 0,-16.98553 2.75677,-29.2574 7.87305,-36.78711 l 0.002,-0.002 c 5.1789,-7.58431 13.34556,-11.36133 25.27344,-11.36133 z"
         id="path387" />
    </g>
  </g>
</svg>
